<svg width="57" height="45" viewBox="0 0 57 45" fill="none" xmlns="http://www.w3.org/2000/svg">
<path fill-rule="evenodd" clip-rule="evenodd" d="M42.0764 0.872812C39.1547 0.599944 35.472 0.599958 30.7739 0.599976H25.4261C20.728 0.599958 17.0453 0.599944 14.1235 0.872812C11.1419 1.15127 8.72606 1.72972 6.66337 3.02154C5.41463 3.80361 4.31647 4.75023 3.4092 5.82665C2.9956 6.31737 2.6414 6.83566 2.33918 7.38729C1.41368 9.07658 1.00086 11.0355 0.799676 13.3714C0.599964 15.6902 0.599969 18.5326 0.599976 22.0373V22.1998C0.599955 26.2496 0.599938 29.4241 0.91649 31.9426C1.23953 34.5128 1.91057 36.5953 3.4092 38.3733C4.31647 39.4497 5.41462 40.3963 6.66337 41.1784C8.72606 42.4702 11.1419 43.0487 14.1235 43.3271C17.0452 43.6 20.7278 43.6 25.4258 43.6H30.7739C35.4719 43.6 39.1547 43.6 42.0764 43.3271C45.058 43.0487 47.4739 42.4702 49.5366 41.1784C50.7853 40.3963 51.8835 39.4497 52.7907 38.3733C54.2894 36.5953 54.9604 34.5128 55.2835 31.9426C55.6 29.4241 55.6 26.2497 55.6 22.2V22.0358C55.6 18.5072 55.6 15.6497 55.3959 13.3215C55.1903 10.9752 54.7682 9.00987 53.8211 7.31561C53.5276 6.79052 53.1863 6.29591 52.7907 5.82665C51.8835 4.75023 50.7853 3.80361 49.5366 3.02154C47.4739 1.72972 45.058 1.15127 42.0764 0.872812ZM8.91882 5.69752C10.2184 4.88364 11.8817 4.40923 14.5368 4.16126C17.2279 3.90994 20.7029 3.90767 25.5418 3.90767H30.6581C35.497 3.90767 38.9721 3.90994 41.6631 4.16126C44.3182 4.40923 45.9816 4.88364 47.2811 5.69752C48.2037 6.27529 49.015 6.97457 49.6854 7.76972L44.8321 11.9533C40.5302 15.6616 37.4373 18.3227 34.7697 20.0771C32.1463 21.8025 30.1609 22.4945 28.1 22.4945C26.0391 22.4945 24.0536 21.8025 21.4303 20.0771C18.7626 18.3227 15.6698 15.6616 11.3679 11.9533L6.51453 7.76972C7.18493 6.97457 7.99628 6.27529 8.91882 5.69752ZM51.2186 11.1259C51.3732 11.832 51.4879 12.6376 51.5696 13.5706C51.7615 15.7601 51.7628 18.4942 51.7628 22.1C51.7628 26.2711 51.7601 29.2667 51.4686 31.5863C51.1809 33.8751 50.6306 35.3089 49.6864 36.4291C49.0158 37.2247 48.2041 37.9244 47.2811 38.5024C45.9816 39.3163 44.3182 39.7907 41.6631 40.0387C38.9721 40.29 35.497 40.2923 30.6581 40.2923H25.5418C20.7029 40.2923 17.2279 40.29 14.5368 40.0387C11.8817 39.7907 10.2184 39.3163 8.91882 38.5024C7.99584 37.9244 7.18416 37.2247 6.51357 36.4291C5.5694 35.3089 5.01904 33.8751 4.73137 31.5863C4.43982 29.2667 4.43719 26.2711 4.43719 22.1C4.43719 18.5198 4.43839 15.7987 4.62635 13.6163C4.70838 12.6639 4.82426 11.8436 4.98133 11.1259L8.75832 14.3817C12.9339 17.9811 16.2062 20.8018 19.1027 22.7068C22.0674 24.6567 24.8628 25.8022 28.1 25.8022C31.3372 25.8022 34.1326 24.6567 37.0973 22.7068C39.9937 20.8019 43.266 17.9811 47.4416 14.3817L51.2186 11.1259Z" fill="#4A4A2E" stroke="#4A4A2E" stroke-width="1.2"/>
</svg>
